<svg width="1419" height="878" fill="none" xmlns="http://www.w3.org/2000/svg"><path d="M206.556 877.405h-45.168l76.485-153.423h57.212l25.294 153.423h-45.168l-15.056-111.172h-1.204l-52.395 111.172Zm1.807-60.53h84.915l-5.42 31.164h-84.915l5.42-31.164ZM335.228 877.405l25.595-153.423h108.403l-5.721 33.561h-66.547l-4.216 26.37h59.923l-5.722 33.561h-59.922l-9.937 59.931h-41.856ZM459.026 877.405l25.595-153.423h108.403l-5.721 33.561h-66.548l-4.215 26.37h59.922l-5.721 33.561h-59.923l-9.937 59.931h-41.855ZM650.274 723.982l-25.595 153.423h-41.855l25.595-153.423h41.855ZM644.515 877.405l25.596-153.423h41.855l-19.874 119.862h62.332l-5.721 33.561H644.515ZM833.073 723.982l-25.595 153.423h-41.856l25.595-153.423h41.856ZM867.363 877.405h-45.168l76.484-153.423h57.213l25.294 153.423h-45.168l-15.056-111.172h-1.205l-52.394 111.172Zm1.806-60.53h84.916l-5.42 31.164h-84.916l5.42-31.164ZM992.233 757.543l5.721-33.561h133.996l-5.72 33.561h-46.37l-19.88 119.862h-41.25l19.88-119.862h-46.377ZM1122.11 877.405l25.59-153.423h111.12l-5.72 33.561h-69.26l-4.22 26.37h63.54l-5.72 33.561h-63.54l-4.21 26.37h68.95l-5.72 33.561h-110.81Z" fill="#C4C4C4"/><path fill-rule="evenodd" clip-rule="evenodd" d="M315.062 228.597c-20.316 42.573-50.552 60.908-94.6 60.908-51.03 0-80.255-28.241-64.884-100.038 15.37-71.798 57.451-100.066 114.466-100.066 53.994 0 62.849 36.657 61.399 61.92h144.333a300.142 300.142 0 0 0-10.601 38.146 289.408 289.408 0 0 0-4.932 29.443l41.739 9.687h-186.92ZM948.207 12.535h317.853c119.87 0 173.37 46.59 145.74 176.836-26.27 124.331-100.56 176.838-217.94 176.838H918.858l55.91-262.476 133.602 28.924-31 144.402h80.23c63.9 0 96.58-31.684 108.46-87.66 11.87-55.976-6.92-87.66-70.82-87.66H951.171c5.109 23.404 4.945 52.205-2.732 87.66-39.117 183.258-197.125 189.2-281.794 189.2-72.602 0-197.618-4.385-207.169-121.024-16.845 33.297-38.254 60.733-69.678 80.87-39.528 25.754-96.091 40.142-181.277 40.142-84.709 0-240.71-5.958-201.594-189.216C46.044 6.113 204.107.184 288.816.184c77.564 0 191.483 9.236 200.241 120.027C548.598 4.529 674.489.184 746.762.184c54.35 0 137.816 2.473 180.554 52.37l20.891-40.02ZM613.634 189.399c8.566-40.018 25.411-66.497 48.516-82.113l-82.838-17.953h166.932v1.107c44.992 5.806 67.221 35.222 53.625 98.959-15.356 71.797-57.477 100.038-114.411 100.038-56.932 0-87.195-28.241-71.824-100.038Z" fill="url(#a)"/><path fill-rule="evenodd" clip-rule="evenodd" d="M.793 597.325h65.718l20.63-97.36h.492l52.329 97.36h75.254l36.999-173.803h-65.718l-20.494 96.391h-.67l-49.185-96.391H37.792L.793 597.325Zm312.534-83.014c6.831-16.749 20.495-23.35 41.646-23.35 20.916 0 32.859 9.004 30.903 23.35h-72.549Zm59.392 43.092c-8.28 8.28-18.21 11.668-34.074 11.668-26.71 0-33.83-14.564-31.63-24.086H440.91c15.029-66.442-24.1-86.184-83.002-86.184-59.883 0-100.515 25.808-110.243 71.795-10.233 48.68 21.163 72.045 85.175 72.045 27.992 0 49.908-4.385 67.178-12.133 17.27-7.747 29.949-19.237 37.532-33.105h-64.831Zm81.784-55.252h28.228l-11.682 54.76c-7.541 36.261 4.866 43.324 41.877 43.324a339.739 339.739 0 0 0 45.02-2.91l7.541-35.523c-5.848.232-11.436.479-16.299.479-13.143 0-18.213-.725-15.589-13.143l10.001-46.973h32.791l8.034-37.968h-32.82l9.251-42.832h-60.787l-9.248 42.832h-28.256l-8.062 37.954Zm147.764 95.174h70.827l40.646-69.61 10.932 69.61h70.909l73.477-133.143h-64.979l-40.646 78.657h-.478l-9.987-78.614h-51.607l-45.537 78.614h-.479l-5.109-78.614h-64.965l16.996 133.1Zm317.902-66.7c4.62-20.93 17.517-32.367 41.864-32.367 24.593 0 32.366 11.437 27.749 32.367-4.385 21.423-16.981 32.612-41.574 32.612-24.279 0-32.37-11.189-27.982-32.612h-.057Zm-63.761 0c-10.465 49.186 14.564 72.044 83.231 72.044 68.671 0 103.441-22.872 113.911-72.044 10.46-48.912-14.57-71.798-83.237-71.798-68.668 0-103.44 22.886-113.905 71.798Zm199.062 66.756h60.79l10.72-49.897c6.07-28.692 30.67-35.783 52.33-35.783 10.7 0 19.23 2.2 29.44 4.852l11.45-54.516a134.511 134.511 0 0 0-19.73-1.461c-20.91 0-42.58 8.498-62.77 29.21h-.5l5.47-25.604h-58.83l-28.23 133.143-.14.056Zm147.56 0h60.78l6.35-29.213 22.13-15.574 22.16 44.787h82.26l-48.85-83.548 71.04-49.651h-80.75l-54.99 43.135 18.98-89.833h-60.85l-38.26 179.883v.014Z" fill="#1A1A1A"/><path fill-rule="evenodd" clip-rule="evenodd" d="M315.062 228.597c-20.316 42.573-50.552 60.908-94.6 60.908-51.03 0-80.255-28.241-64.884-100.038 15.37-71.798 57.451-100.066 114.466-100.066 53.994 0 62.849 36.657 61.399 61.92h144.333a300.142 300.142 0 0 0-10.601 38.146 289.408 289.408 0 0 0-4.932 29.443l41.739 9.687h-186.92ZM948.207 12.535h317.853c119.87 0 173.37 46.59 145.74 176.836-26.27 124.331-100.56 176.838-217.94 176.838H918.858l55.91-262.476 133.602 28.924-31 144.402h80.23c63.9 0 96.58-31.684 108.46-87.66 11.87-55.976-6.92-87.66-70.82-87.66H951.171c5.109 23.404 4.945 52.205-2.732 87.66-39.117 183.258-197.125 189.2-281.794 189.2-72.602 0-197.618-4.385-207.169-121.024-16.845 33.297-38.254 60.733-69.678 80.87-39.528 25.754-96.091 40.142-181.277 40.142-84.709 0-240.71-5.958-201.594-189.216C46.044 6.113 204.107.184 288.816.184c77.564 0 191.483 9.236 200.241 120.027C548.598 4.529 674.489.184 746.762.184c54.35 0 137.816 2.473 180.554 52.37l20.891-40.02ZM613.634 189.399c8.566-40.018 25.411-66.497 48.516-82.113l-82.838-17.953h166.932v1.107c44.992 5.806 67.221 35.222 53.625 98.959-15.356 71.797-57.477 100.038-114.411 100.038-56.932 0-87.195-28.241-71.824-100.038Z" fill="#F99A1A"/><path fill-rule="evenodd" clip-rule="evenodd" d="M.793 597.325h65.718l20.63-97.36h.492l52.329 97.36h75.254l36.999-173.803h-65.718l-20.494 96.391h-.67l-49.185-96.391H37.792L.793 597.325Zm312.534-83.014c6.831-16.749 20.495-23.35 41.646-23.35 20.916 0 32.859 9.004 30.903 23.35h-72.549Zm59.392 43.092c-8.28 8.28-18.21 11.668-34.074 11.668-26.71 0-33.83-14.564-31.63-24.086H440.91c15.029-66.442-24.1-86.184-83.002-86.184-59.883 0-100.515 25.808-110.243 71.795-10.233 48.68 21.163 72.045 85.175 72.045 27.992 0 49.908-4.385 67.178-12.133 17.27-7.747 29.949-19.237 37.532-33.105h-64.831Zm81.784-55.252h28.228l-11.682 54.76c-7.541 36.261 4.866 43.324 41.877 43.324a339.739 339.739 0 0 0 45.02-2.91l7.541-35.523c-5.848.232-11.436.479-16.299.479-13.143 0-18.213-.725-15.589-13.143l10.001-46.973h32.791l8.034-37.968h-32.82l9.251-42.832h-60.787l-9.248 42.832h-28.256l-8.062 37.954Zm147.764 95.174h70.827l40.646-69.61 10.932 69.61h70.909l73.477-133.143h-64.979l-40.646 78.657h-.478l-9.987-78.614h-51.607l-45.537 78.614h-.479l-5.109-78.614h-64.965l16.996 133.1Zm317.902-66.7c4.62-20.93 17.517-32.367 41.864-32.367 24.593 0 32.366 11.437 27.749 32.367-4.385 21.423-16.981 32.612-41.574 32.612-24.279 0-32.37-11.189-27.982-32.612h-.057Zm-63.761 0c-10.465 49.186 14.564 72.044 83.231 72.044 68.671 0 103.441-22.872 113.911-72.044 10.46-48.912-14.57-71.798-83.237-71.798-68.668 0-103.44 22.886-113.905 71.798Zm199.062 66.756h60.79l10.72-49.897c6.07-28.692 30.67-35.783 52.33-35.783 10.7 0 19.23 2.2 29.44 4.852l11.45-54.516a134.511 134.511 0 0 0-19.73-1.461c-20.91 0-42.58 8.498-62.77 29.21h-.5l5.47-25.604h-58.83l-28.23 133.143-.14.056Zm147.56 0h60.78l6.35-29.213 22.13-15.574 22.16 44.787h82.26l-48.85-83.548 71.04-49.651h-80.75l-54.99 43.135 18.98-89.833h-60.85l-38.26 179.883v.014Z" fill="#1A1A1A"/><defs><linearGradient id="a" x1="1335.52" y1="413.261" x2="1.599" y2="-60.889" gradientUnits="userSpaceOnUse"><stop stop-color="#FF7B00"/><stop offset="1" stop-color="#FFC685"/></linearGradient></defs></svg>